<svg xmlns="http://www.w3.org/2000/svg" xmlns:xlink="http://www.w3.org/1999/xlink" width="309" height="80" viewBox="0 0 309 80">
  <defs>
    <filter id="Union_8" x="0" y="0" width="309" height="80" filterUnits="userSpaceOnUse">
      <feOffset dy="3" input="SourceAlpha"/>
      <feGaussianBlur stdDeviation="3" result="blur"/>
      <feFlood flood-opacity="0.161"/>
      <feComposite operator="in" in2="blur"/>
      <feComposite in="SourceGraphic"/>
    </filter>
    <filter id="TRACK_N_GO" x="76" y="14" width="199" height="53" filterUnits="userSpaceOnUse">
      <feOffset dy="3" input="SourceAlpha"/>
      <feGaussianBlur stdDeviation="3" result="blur-2"/>
      <feFlood flood-opacity="0.161"/>
      <feComposite operator="in" in2="blur-2"/>
      <feComposite in="SourceGraphic"/>
    </filter>
  </defs>
  <g id="Component_32_1" data-name="Component 32 – 1" transform="translate(9 6)">
    <g transform="matrix(1, 0, 0, 1, -9, -6)" filter="url(#Union_8)">
      <path id="Union_8-2" data-name="Union 8" d="M71,62a5,5,0,0,1-5-5V42.215l-3.811-2.25a7.713,7.713,0,0,1-3.161-9.653l4.5-10.5-1.768-.526a3.745,3.745,0,0,0-3.037.738l-4.771,3.655a3.845,3.845,0,1,1-4.68-6.1l4.768-3.655a11.488,11.488,0,0,1,9.716-2.06L66,12.524V5a5,5,0,0,1,5-5H261a5,5,0,0,1,5,5v7.821l5.3,1.577a11.532,11.532,0,0,1,7.426,6.123l3.132,6.4h5.292a3.846,3.846,0,1,1,0,7.691h-6.489a5.8,5.8,0,0,1-5.181-3.232l-2.436-4.98-3.764,9.409,7.361,4.343a5.794,5.794,0,0,1,2.6,6.538l-3.8,12.146a3.845,3.845,0,1,1-7.34-2.3L271.4,46l-5.4-3.19V57a5,5,0,0,1-5,5ZM17.5,60.124V50.85L2.3,54.452A1.873,1.873,0,0,1,.938,51.007l23.749-13.75A1.872,1.872,0,0,1,27.5,38.874V47.89l10.14-3.328A1.882,1.882,0,0,1,40,46.374V57.623a1.878,1.878,0,0,1-1.625,1.859l-18.75,2.5a1.909,1.909,0,0,1-.249.016A1.878,1.878,0,0,1,17.5,60.124ZM45.845,50a3.846,3.846,0,0,1,0-7.692h8.04l1.779-4.149a11.446,11.446,0,0,0,4.566,5.122l1.283.757L60.456,46.5a5.756,5.756,0,0,1-5.3,3.5ZM18.5,35.123V25.851L3.3,29.452a1.873,1.873,0,0,1-1.367-3.445L25.687,12.257A1.871,1.871,0,0,1,28.5,13.874V22.89l10.141-3.328A1.882,1.882,0,0,1,41,21.374v11.25a1.879,1.879,0,0,1-1.625,1.859l-18.751,2.5a1.908,1.908,0,0,1-.249.016A1.878,1.878,0,0,1,18.5,35.123ZM267.923,5.769a5.769,5.769,0,1,1,5.769,5.77A5.769,5.769,0,0,1,267.923,5.769Z" transform="translate(9 6)" fill="#42d77d"/>
    </g>
    <g transform="matrix(1, 0, 0, 1, -9, -6)" filter="url(#TRACK_N_GO)">
      <text id="TRACK_N_GO-2" data-name="TRACK&apos;N GO" transform="translate(85 48)" fill="#fff" font-size="30" font-family="Georgia"><tspan x="0" y="0">TRACK&apos;N GO</tspan></text>
    </g>
  </g>
</svg>
